<?xml version="1.0" encoding="UTF-8" standalone="no"?>
<!-- Created with Inkscape (http://www.inkscape.org/) -->

<svg
   width="72.638mm"
   height="105.87913mm"
   viewBox="0 0 72.638 105.87913"
   version="1.1"
   id="svg1"
   xml:space="preserve"
   inkscape:version="1.4.1 (93de688d07, 2025-03-30)"
   sodipodi:docname="flag.svg"
   xmlns:inkscape="http://www.inkscape.org/namespaces/inkscape"
   xmlns:sodipodi="http://sodipodi.sourceforge.net/DTD/sodipodi-0.dtd"
   xmlns="http://www.w3.org/2000/svg"
   xmlns:svg="http://www.w3.org/2000/svg"><sodipodi:namedview
     id="namedview1"
     pagecolor="#ffffff"
     bordercolor="#000000"
     borderopacity="0.25"
     inkscape:showpageshadow="2"
     inkscape:pageopacity="0.0"
     inkscape:pagecheckerboard="0"
     inkscape:deskcolor="#d1d1d1"
     inkscape:document-units="mm"
     inkscape:zoom="0.84662347"
     inkscape:cx="94.49301"
     inkscape:cy="272.84857"
     inkscape:window-width="1680"
     inkscape:window-height="972"
     inkscape:window-x="0"
     inkscape:window-y="48"
     inkscape:window-maximized="1"
     inkscape:current-layer="layer1-5" /><defs
     id="defs1" /><g
     inkscape:label="Layer 1"
     inkscape:groupmode="layer"
     id="layer1"
     transform="translate(-116.00972,-54.939157)"><g
       inkscape:label="Layer 1"
       id="layer1-5"
       transform="translate(-49.692138,-20.949346)"><path
         d="m 169.39532,75.888503 c 2.03982,0 3.69345,1.653634 3.69345,3.693457 v 9.110529 l 8.47363,-1.694706 c 8.12822,-1.625663 16.55374,-0.852106 24.24992,2.226416 l 1.00314,0.401159 c 7.68781,3.075222 16.14977,3.64953 24.1828,1.641224 3.7294,-0.932277 7.3416,1.888244 7.3416,5.732197 v 36.279651 c 0,3.17293 -2.15944,5.93859 -5.23781,6.70831 l -1.05584,0.26396 c -8.71459,2.17864 -17.89357,1.55568 -26.23389,-1.78025 -7.69618,-3.07887 -16.1217,-3.85203 -24.24992,-2.22642 l -8.47363,1.69456 v 40.13558 c 0,2.03978 -1.65363,3.69346 -3.69345,3.69346 -2.03982,0 -3.69346,-1.65368 -3.69346,-3.69346 V 79.58196 c 0,-2.039823 1.65364,-3.693457 3.69346,-3.693457 z"
         fill="#1c274c"
         id="path1-6"
         style="fill:#ffffff;fill-opacity:1;stroke-width:4.92461" /></g></g></svg>
